<svg xmlns="http://www.w3.org/2000/svg"><symbol id="logo-top" viewBox="0 0 372.4 153.8"><path fill="#fff" stroke="#fff" stroke-miterlimit="10" stroke-width="5" d="M321.1 136.6l-47-41.2m45.1 44.5l-45.1-44.5m46.8 16.6l-37.3-35.1m36.7 31l-36.7-31.7m37.1 10.5L292.5 61m28.2 2.7L300.5 46m20.3 37.2l-28.3-22.6m28.8.1l-20.8-15.1m20.6 98.7l-48.2-48.2 48.2-86.6 48.2 86.6-48.2 48.2zm0-134.8v134.8m0-134.8l-1.6 132.1m1.6-131.8l1.7 132.7"/><path fill="#fff" stroke="#fff" stroke-miterlimit="10" d="M24.1 140.7H6.6V40.4H1V25.3h28.7v15.1h-5.6zm45-51.9H49v36.8h3.3V91.9h16.8v48.8H31.5V25.3h37.6v45H52.3V40.4H49v33.2h20.1zM72.4 30c0-3.6 1.2-4.7 4.8-4.7h28.1c3.6 0 4.8 1.1 4.8 4.7v110.7H92.6v-32.9h-3.3v32.9H72.4zm16.9 62.6h3.3V40.4h-3.3zm56.9-19c3.6 0 4.8 1.2 4.8 4.8V136c0 3.6-1.2 4.7-4.8 4.7h-28.1c-3.6 0-4.7-1.1-4.7-4.7V91.9h16.8v33.7h3.3V88.8h-15.4c-3.6 0-4.7-1.2-4.7-4.8V30c0-3.6 1.1-4.7 4.7-4.7h28.1c3.6 0 4.8 1.1 4.8 4.7v40.3h-16.9V40.4h-3.3v33.2zm45.7 15.2h-20.1v36.8h3.3V91.9h16.8v48.8h-37.6V25.3h37.6v45h-16.8V40.4h-3.3v33.2h20.1zm41.6 45.2c0 5.3-1.7 6.7-6.8 6.7h-31.5V25.3h31.5c5.1 0 6.8 1.4 6.8 6.7zm-20.8-8.4h3.3V40.4h-3.3z"/></symbol><symbol id="green-negative" viewBox="0 0 125.9 109"><path fill="none" stroke="#fff" stroke-miterlimit="10" stroke-width="6" d="M62.9 103L120.7 3H5.2l57.7 100z"/><path fill="none" stroke="#fff" stroke-miterlimit="10" stroke-width="10" d="M117.6 6H8.2"/><path fill="none" stroke="#fff" stroke-miterlimit="10" stroke-width="5" d="M117.6 62H8.2"/></symbol><symbol id="addcart" viewBox="0 0 65.7 57.2"><path fill="#fff" d="M0 0h65.7v12.13H0zm0 22.5h65.7v12.13H0zm0 22.6h65.7v12.13H0z"/></symbol><symbol id="herbal-negative" viewBox="0 0 125.9 109"><path fill="none" stroke="#fff" stroke-miterlimit="10" stroke-width="6" d="M62.9 103L120.7 3H5.2l57.7 100z"/><path fill="none" stroke="#fff" stroke-miterlimit="10" stroke-width="10" d="M8.3 7h109.4"/></symbol><symbol id="white-negative" viewBox="0 0 125.9 109"><path fill="none" stroke="#fff" stroke-miterlimit="10" stroke-width="6" d="M62.9 6L5.2 106h115.5L62.9 6z"/><path fill="none" stroke="#fff" stroke-miterlimit="10" stroke-width="10" d="M8.3 103h109.4"/><path fill="none" stroke="#fff" stroke-miterlimit="10" stroke-width="5" d="M8.3 47h109.4"/></symbol><symbol id="caffiene" viewBox="0 0 49.5 69.2"><style>.st0{fill:none;stroke:#fff;stroke-width:3;stroke-miterlimit:10}</style><path d="M24.8 63.4L2.4 43.9M23.8 65L2.4 43.9m22.3 7.9L6.9 35.1m17.5 14.7L6.9 34.7m17.7 5L11.2 27.5m13.4 1.3L15 20.4m9.6 17.7L11.2 27.3m13.6.1L15 20.2m9.8 46.9L1.9 44.2 24.8 3.1l22.8 41.1zm0-64v64m0-64L24 65.8m.8-62.6l.8 63.1" class="st0"/></symbol><symbol id="black-negative" viewBox="0 0 125.9 109"><path fill="none" stroke="#fff" stroke-miterlimit="10" stroke-width="6" d="M62.9 6L5.2 106h115.5L62.9 6z"/><path fill="none" stroke="#fff" stroke-miterlimit="10" stroke-width="10" d="M8.3 103h109.4"/></symbol><symbol id="facebook-square-copy" viewBox="0 0 448 512"><path d="M448 80v352c0 26.5-21.5 48-48 48h-85.3V302.8h60.6l8.7-67.6h-69.3V192c0-19.6 5.4-32.9 33.5-32.9H384V98.7c-6.2-.8-27.4-2.7-52.2-2.7-51.6 0-87 31.5-87 89.4v49.9H184v67.6h60.9V480H48c-26.5 0-48-21.5-48-48V80c0-26.5 21.5-48 48-48h352c26.5 0 48 21.5 48 48z"/></symbol><symbol id="instagram-copy" viewBox="0 0 448 512"><path d="M224.1 141c-63.6 0-114.9 51.3-114.9 114.9s51.3 114.9 114.9 114.9S339 319.5 339 255.9 287.7 141 224.1 141zm0 189.6c-41.1 0-74.7-33.5-74.7-74.7s33.5-74.7 74.7-74.7 74.7 33.5 74.7 74.7-33.6 74.7-74.7 74.7zm146.4-194.3c0 14.9-12 26.8-26.8 26.8-14.9 0-26.8-12-26.8-26.8s12-26.8 26.8-26.8 26.8 12 26.8 26.8zm76.1 27.2c-1.7-35.9-9.9-67.7-36.2-93.9-26.2-26.2-58-34.4-93.9-36.2-37-2.1-147.9-2.1-184.9 0-35.8 1.7-67.6 9.9-93.9 36.1s-34.4 58-36.2 93.9c-2.1 37-2.1 147.9 0 184.9 1.7 35.9 9.9 67.7 36.2 93.9s58 34.4 93.9 36.2c37 2.1 147.9 2.1 184.9 0 35.9-1.7 67.7-9.9 93.9-36.2 26.2-26.2 34.4-58 36.2-93.9 2.1-37 2.1-147.8 0-184.8zM398.8 388c-7.8 19.6-22.9 34.7-42.6 42.6-29.5 11.7-99.5 9-132.1 9s-102.7 2.6-132.1-9c-19.6-7.8-34.7-22.9-42.6-42.6-11.7-29.5-9-99.5-9-132.1s-2.6-102.7 9-132.1c7.8-19.6 22.9-34.7 42.6-42.6 29.5-11.7 99.5-9 132.1-9s102.7-2.6 132.1 9c19.6 7.8 34.7 22.9 42.6 42.6 11.7 29.5 9 99.5 9 132.1s2.7 102.7-9 132.1z"/></symbol><symbol id="pinterest-square-copy" viewBox="0 0 448 512"><path d="M448 80v352c0 26.5-21.5 48-48 48H154.4c9.8-16.4 22.4-40 27.4-59.3 3-11.5 15.3-58.4 15.3-58.4 8 15.3 31.4 28.2 56.3 28.2 74.1 0 127.4-68.1 127.4-152.7 0-81.1-66.2-141.8-151.4-141.8-106 0-162.2 71.1-162.2 148.6 0 36 19.2 80.8 49.8 95.1 4.7 2.2 7.1 1.2 8.2-3.3.8-3.4 5-20.1 6.8-27.8.6-2.5.3-4.6-1.7-7-10.1-12.3-18.3-34.9-18.3-56 0-54.2 41-106.6 110.9-106.6 60.3 0 102.6 41.1 102.6 99.9 0 66.4-33.5 112.4-77.2 112.4-24.1 0-42.1-19.9-36.4-44.4 6.9-29.2 20.3-60.7 20.3-81.8 0-53-75.5-45.7-75.5 25 0 21.7 7.3 36.5 7.3 36.5-31.4 132.8-36.1 134.5-29.6 192.6l2.2.8H48c-26.5 0-48-21.5-48-48V80c0-26.5 21.5-48 48-48h352c26.5 0 48 21.5 48 48z"/></symbol><symbol id="twitter-square-copy" viewBox="0 0 448 512"><path d="M400 32H48C21.5 32 0 53.5 0 80v352c0 26.5 21.5 48 48 48h352c26.5 0 48-21.5 48-48V80c0-26.5-21.5-48-48-48zm-48.9 158.8c.2 2.8.2 5.7.2 8.5 0 86.7-66 186.6-186.6 186.6-37.2 0-71.7-10.8-100.7-29.4 5.3.6 10.4.8 15.8.8 30.7 0 58.9-10.4 81.4-28-28.8-.6-53-19.5-61.3-45.5 10.1 1.5 19.2 1.5 29.6-1.2-30-6.1-52.5-32.5-52.5-64.4v-.8c8.7 4.9 18.9 7.9 29.6 8.3a65.447 65.447 0 0 1-29.2-54.6c0-12.2 3.2-23.4 8.9-33.1 32.3 39.8 80.8 65.8 135.2 68.6-9.3-44.5 24-80.6 64-80.6 18.9 0 35.9 7.9 47.9 20.7 14.8-2.8 29-8.3 41.6-15.8-4.9 15.2-15.2 28-28.8 36.1 13.2-1.4 26-5.1 37.8-10.2-8.9 13.1-20.1 24.7-32.9 34z"/></symbol></svg>