<svg xmlns="http://www.w3.org/2000/svg" width="256" height="129" viewBox="0 0 256 129"><path fill="none" stroke="#fff" stroke-miterlimit="10" stroke-width="6" d="M209.8 113.9l-39.1-34.1m37.5 36.9l-37.5-36.9m38.9 13.8l-31-29.2m30.5 25.7l-30.5-26.3m30.9 8.7L186 51.2m23.5 2.3l-16.8-14.7m16.8 30.9L186 50.8m23.9.2l-17.2-12.6m17.1 81.9l-40-40 40-71.9 40 71.9-40 40zm0-111.9v111.9m0-111.9l-1.3 109.7m1.3-109.4l1.4 110.2"/><path fill="#fff" d="M18.9 110.7H8.1V26.3H4.3v-9.4h18.5v9.4h-3.9zm29.5-43.8H35.1v34.4h2.7V69.7h10.6v41H24.3V16.9h24.1v37.9H37.8V26.3h-2.7v31.2h13.3zm2.7-46.4c0-2.8.8-3.6 3.6-3.6h16.9c2.8 0 3.6.8 3.6 3.6v90.2H64.4V83.6h-2.7v27.1H51.1zm10.6 53.6h2.7V26.3h-2.7zm36.7-16.6c2.8 0 3.6.8 3.6 3.6v46c0 2.8-.8 3.6-3.6 3.6H81.5c-2.8 0-3.6-.8-3.6-3.6V69.7h10.6v31.6h2.7V66.9h-9.7c-2.8 0-3.6-.8-3.6-3.5V20.5c0-2.8.8-3.6 3.6-3.6h16.9c2.8 0 3.6.8 3.6 3.6v34.3H91.4V26.3h-2.7v31.2zm30.4 9.4h-13.3v34.4h2.7V69.7h10.6v41h-24.1V16.9h24.1v37.9h-10.6V26.3h-2.7v31.2h13.3zm27.1 38.9c0 3.7-1.1 4.9-5 4.9h-19.4V16.9h19.4c3.9 0 5 1.2 5 5zm-13.6-4.5h2.7v-75h-2.7z"/></svg>