<svg xmlns="http://www.w3.org/2000/svg"><symbol id="green-negative" viewBox="0 0 125.9 109"><path fill="none" stroke="#fff" stroke-miterlimit="10" stroke-width="6" d="M62.9 103L120.7 3H5.2l57.7 100z"/><path fill="none" stroke="#fff" stroke-miterlimit="10" stroke-width="10" d="M117.6 6H8.2"/><path fill="none" stroke="#fff" stroke-miterlimit="10" stroke-width="5" d="M117.6 62H8.2"/></symbol><symbol id="addcart" viewBox="0 0 65.7 57.2"><path fill="#fff" d="M0 0h65.7v12.13H0zm0 22.5h65.7v12.13H0zm0 22.6h65.7v12.13H0z"/></symbol><symbol id="herbal-negative" viewBox="0 0 125.9 109"><path fill="none" stroke="#fff" stroke-miterlimit="10" stroke-width="6" d="M62.9 103L120.7 3H5.2l57.7 100z"/><path fill="none" stroke="#fff" stroke-miterlimit="10" stroke-width="10" d="M8.3 7h109.4"/></symbol><symbol id="white-negative" viewBox="0 0 125.9 109"><path fill="none" stroke="#fff" stroke-miterlimit="10" stroke-width="6" d="M62.9 6L5.2 106h115.5L62.9 6z"/><path fill="none" stroke="#fff" stroke-miterlimit="10" stroke-width="10" d="M8.3 103h109.4"/><path fill="none" stroke="#fff" stroke-miterlimit="10" stroke-width="5" d="M8.3 47h109.4"/></symbol><symbol id="caffiene" viewBox="0 0 49.5 69.2"><style>.st0{fill:none;stroke:#fff;stroke-width:3;stroke-miterlimit:10}</style><path d="M24.8 63.4L2.4 43.9M23.8 65L2.4 43.9m22.3 7.9L6.9 35.1m17.5 14.7L6.9 34.7m17.7 5L11.2 27.5m13.4 1.3L15 20.4m9.6 17.7L11.2 27.3m13.6.1L15 20.2m9.8 46.9L1.9 44.2 24.8 3.1l22.8 41.1zm0-64v64m0-64L24 65.8m.8-62.6l.8 63.1" class="st0"/></symbol><symbol id="black-negative" viewBox="0 0 125.9 109"><path fill="none" stroke="#fff" stroke-miterlimit="10" stroke-width="6" d="M62.9 6L5.2 106h115.5L62.9 6z"/><path fill="none" stroke="#fff" stroke-miterlimit="10" stroke-width="10" d="M8.3 103h109.4"/></symbol></svg>